<?xml version="1.0" encoding="UTF-8" standalone="no"?>
<svg
   xmlns:dc="http://purl.org/dc/elements/1.1/"
   xmlns:cc="http://creativecommons.org/ns#"
   xmlns:rdf="http://www.w3.org/1999/02/22-rdf-syntax-ns#"
   xmlns:svg="http://www.w3.org/2000/svg"
   xmlns="http://www.w3.org/2000/svg"
   xmlns:sodipodi="http://sodipodi.sourceforge.net/DTD/sodipodi-0.dtd"
   xmlns:inkscape="http://www.inkscape.org/namespaces/inkscape"
   inkscape:version="1.0 (4035a4f, 2020-05-01)"
   sodipodi:docname="undraw_code_review_l1q9.svg"
   version="1.1"
   viewBox="0 0 1126.19355 855"
   height="855"
   width="1126.19355"
   data-name="Layer 1"
   id="a594ac37-6d44-4297-8862-1cbd9c01c0b7">
  <metadata
     id="metadata1045">
    <rdf:RDF>
      <cc:Work
         rdf:about="">
        <dc:format>image/svg+xml</dc:format>
        <dc:type
           rdf:resource="http://purl.org/dc/dcmitype/StillImage" />
      </cc:Work>
    </rdf:RDF>
  </metadata>
  <defs
     id="defs1043" />
  <sodipodi:namedview
     inkscape:current-layer="a594ac37-6d44-4297-8862-1cbd9c01c0b7"
     inkscape:window-maximized="1"
     inkscape:window-y="23"
     inkscape:window-x="0"
     inkscape:cy="427.5"
     inkscape:cx="563.0968"
     inkscape:zoom="0.66549708"
     showgrid="false"
     id="namedview1041"
     inkscape:window-height="755"
     inkscape:window-width="1280"
     inkscape:pageshadow="2"
     inkscape:pageopacity="0"
     guidetolerance="10"
     gridtolerance="10"
     objecttolerance="10"
     borderopacity="1"
     bordercolor="#666666"
     pagecolor="#ffffff" />
  <title
     id="title940">code review</title>
  <path
     id="path942"
     fill="#f2f2f2"
     transform="translate(-36.90323 -22.5)"
     d="M581.7675,778.43794C339.36866,759.99137,50.29677,572.17166,65.01385,378.78054S359.70017,5.35846,602.099,23.805,984.03089,403.667,969.31381,597.05809,824.16633,796.88451,581.7675,778.43794Z" />
  <ellipse
     id="ellipse946"
     opacity="0.1"
     ry="20.5"
     rx="431"
     cy="755.5"
     cx="565.19355" />
  <rect
     style="fill:#6a7275;fill-opacity:1"
     id="rect952"
     fill="#3f3d56"
     height="590"
     width="752"
     y="162"
     x="196.19355" />
  <path
     id="path954"
     fill="#f2f2f2"
     transform="translate(-36.90323 -22.5)"
     d="M600.54135,265.12914H415.02363a2.25143,2.25143,0,1,1,0-4.50285H600.54135a2.25143,2.25143,0,0,1,0,4.50285Z" />
  <path
     id="path956"
     fill="#f2f2f2"
     transform="translate(-36.90323 -22.5)"
     d="M803.6202,289.89486H511.83506a2.25143,2.25143,0,0,1,0-4.50286H803.6202a2.25143,2.25143,0,1,1,0,4.50286Z" />
  <path
     id="path958"
     fill="#f2f2f2"
     transform="translate(-36.90323 -22.5)"
     d="M601.44192,314.66057H415.9242a2.25143,2.25143,0,1,1,0-4.50286H601.44192a2.25143,2.25143,0,1,1,0,4.50286Z" />
  <path
     id="path960"
     fill="#f2f2f2"
     transform="translate(-36.90323 -22.5)"
     d="M803.6202,315.11086H618.10249a2.25143,2.25143,0,0,1,0-4.50286H803.6202a2.25143,2.25143,0,1,1,0,4.50286Z" />
  <path
     id="path962"
     fill="#f2f2f2"
     transform="translate(-36.90323 -22.5)"
     d="M601.8922,339.42629H416.37449a2.25143,2.25143,0,0,1,0-4.50286H601.8922a2.25143,2.25143,0,1,1,0,4.50286Z" />
  <path
     id="path964"
     fill="#f2f2f2"
     transform="translate(-36.90323 -22.5)"
     d="M602.34249,364.192H416.82477a2.25143,2.25143,0,0,1,0-4.50286H602.34249a2.25143,2.25143,0,1,1,0,4.50286Z" />
  <path
     id="path966"
     fill="#f2f2f2"
     transform="translate(-36.90323 -22.5)"
     d="M686.54592,265.57943H633.4122a2.25143,2.25143,0,0,1,0-4.50286h53.13372a2.25143,2.25143,0,1,1,0,4.50286Z" />
  <path
     id="path968"
     fill="#f2f2f2"
     transform="translate(-36.90323 -22.5)"
     d="M686.54592,339.42629H633.4122a2.25143,2.25143,0,0,1,0-4.50286h53.13372a2.25143,2.25143,0,1,1,0,4.50286Z" />
  <path
     id="path970"
     fill="#f2f2f2"
     transform="translate(-36.90323 -22.5)"
     d="M686.54592,363.74171H633.4122a2.25143,2.25143,0,1,1,0-4.50285h53.13372a2.25143,2.25143,0,1,1,0,4.50285Z" />
  <path
     id="path972"
     fill="#f2f2f2"
     transform="translate(-36.90323 -22.5)"
     d="M775.70249,363.74171H722.56877a2.25143,2.25143,0,0,1,0-4.50285h53.13372a2.25143,2.25143,0,1,1,0,4.50285Z" />
  <path
     id="path974"
     fill="#f2f2f2"
     transform="translate(-36.90323 -22.5)"
     d="M467.70706,289.89486H414.57335a2.25143,2.25143,0,0,1,0-4.50286h53.13371a2.25143,2.25143,0,0,1,0,4.50286Z" />
  <path
     id="path976"
     fill="#f2f2f2"
     transform="translate(-36.90323 -22.5)"
     d="M600.76649,629.86057H415.24877a2.25143,2.25143,0,0,1,0-4.50286H600.76649a2.25143,2.25143,0,0,1,0,4.50286Z" />
  <path
     id="path978"
     fill="#f2f2f2"
     transform="translate(-36.90323 -22.5)"
     d="M599.86592,679.392H414.3482a2.25143,2.25143,0,1,1,0-4.50286H599.86592a2.25143,2.25143,0,0,1,0,4.50286Z" />
  <path
     id="path980"
     fill="#f2f2f2"
     transform="translate(-36.90323 -22.5)"
     d="M600.3162,704.15771H414.79849a2.25143,2.25143,0,1,1,0-4.50285H600.3162a2.25143,2.25143,0,1,1,0,4.50285Z" />
  <path
     id="path982"
     fill="#f2f2f2"
     transform="translate(-36.90323 -22.5)"
     d="M679.56649,679.84229H626.43277a2.25143,2.25143,0,0,1,0-4.50286h53.13372a2.25143,2.25143,0,0,1,0,4.50286Z" />
  <path
     id="path984"
     fill="#f2f2f2"
     transform="translate(-36.90323 -22.5)"
     d="M679.56649,704.15771H626.43277a2.25142,2.25142,0,0,1,0-4.50285h53.13372a2.25142,2.25142,0,1,1,0,4.50285Z" />
  <path
     id="path986"
     fill="#f2f2f2"
     transform="translate(-36.90323 -22.5)"
     d="M768.72306,679.84229H715.58935a2.25143,2.25143,0,1,1,0-4.50286h53.13371a2.25143,2.25143,0,0,1,0,4.50286Z" />
  <path
     id="path988"
     fill="#f2f2f2"
     transform="translate(-36.90323 -22.5)"
     d="M803.84535,654.62629H512.0602a2.25143,2.25143,0,0,1,0-4.50286H803.84535a2.25143,2.25143,0,0,1,0,4.50286Z" />
  <path
     id="path990"
     fill="#f2f2f2"
     transform="translate(-36.90323 -22.5)"
     d="M467.9322,654.62629H414.79849a2.25143,2.25143,0,0,1,0-4.50286H467.9322a2.25143,2.25143,0,0,1,0,4.50286Z" />
  <path
     id="path992"
     fill="#f2f2f2"
     transform="translate(-36.90323 -22.5)"
     d="M803.84535,729.37371H512.0602a2.25143,2.25143,0,1,1,0-4.50285H803.84535a2.25142,2.25142,0,0,1,0,4.50285Z" />
  <path
     id="path994"
     fill="#f2f2f2"
     transform="translate(-36.90323 -22.5)"
     d="M467.9322,729.37371H414.79849a2.25143,2.25143,0,1,1,0-4.50285H467.9322a2.25143,2.25143,0,1,1,0,4.50285Z" />
  <polygon
     style="fill:#00aff5;fill-opacity:1"
     id="polygon996"
     fill="#6c63ff"
     points="519.06 401.13 447.014 472.275 519.06 543.42 535.27 527.21 480.786 472.725 535.72 417.79 519.06 401.13" />
  <polygon
     style="fill:#00aff5;fill-opacity:1"
     id="polygon998"
     fill="#6c63ff"
     points="625.327 401.13 697.373 472.275 625.327 543.42 609.117 527.21 663.602 472.725 608.667 417.79 625.327 401.13" />
  <circle
     style="fill:#00aff5;fill-opacity:1"
     id="circle1000"
     fill="#6c63ff"
     r="9"
     cy="177"
     cx="216.19355" />
  <circle
     style="fill:#00aff5;fill-opacity:1"
     id="circle1002"
     fill="#6c63ff"
     r="9"
     cy="177"
     cx="240.19355" />
  <circle
     style="fill:#00aff5;fill-opacity:1"
     id="circle1004"
     fill="#6c63ff"
     r="9"
     cy="177"
     cx="264.19355" />
  <rect
     id="rect1006"
     opacity="0.1"
     height="3"
     width="752"
     y="192"
     x="196.19355" />
  <path
     id="path1008"
     fill="#f2f2f2"
     transform="translate(-36.90323 -22.5)"
     d="M1163.09677,629.95357c0,63.77108-37.91089,86.03756-84.67635,86.03756s-84.67635-22.26648-84.67635-86.03756,84.67635-144.898,84.67635-144.898S1163.09677,566.18249,1163.09677,629.95357Z" />
</svg>
