<?xml version="1.0" encoding="UTF-8" standalone="no"?>
<svg
   xmlns:dc="http://purl.org/dc/elements/1.1/"
   xmlns:cc="http://creativecommons.org/ns#"
   xmlns:rdf="http://www.w3.org/1999/02/22-rdf-syntax-ns#"
   xmlns:svg="http://www.w3.org/2000/svg"
   xmlns="http://www.w3.org/2000/svg"
   xmlns:xlink="http://www.w3.org/1999/xlink"
   xmlns:sodipodi="http://sodipodi.sourceforge.net/DTD/sodipodi-0.dtd"
   xmlns:inkscape="http://www.inkscape.org/namespaces/inkscape"
   inkscape:version="1.0 (4035a4f, 2020-05-01)"
   sodipodi:docname="undraw_finance_0bdk.svg"
   version="1.1"
   viewBox="0 0 954 549.86"
   height="549.86"
   width="954"
   data-name="Layer 1"
   id="02a143c3-6017-4373-a226-06a05c845178">
  <metadata
     id="metadata173">
    <rdf:RDF>
      <cc:Work
         rdf:about="">
        <dc:format>image/svg+xml</dc:format>
        <dc:type
           rdf:resource="http://purl.org/dc/dcmitype/StillImage" />
      </cc:Work>
    </rdf:RDF>
  </metadata>
  <sodipodi:namedview
     inkscape:current-layer="02a143c3-6017-4373-a226-06a05c845178"
     inkscape:window-maximized="1"
     inkscape:window-y="23"
     inkscape:window-x="0"
     inkscape:cy="274.92999"
     inkscape:cx="290.97531"
     inkscape:zoom="1.0348089"
     showgrid="false"
     id="namedview171"
     inkscape:window-height="755"
     inkscape:window-width="1280"
     inkscape:pageshadow="2"
     inkscape:pageopacity="0"
     guidetolerance="10"
     gridtolerance="10"
     objecttolerance="10"
     borderopacity="1"
     bordercolor="#666666"
     pagecolor="#ffffff" />
  <defs
     id="defs18">
    <linearGradient
       gradientUnits="userSpaceOnUse"
       y2="230.62"
       x2="569.11"
       y1="596.37"
       x1="569.11"
       id="6beaf3f8-3e45-4d0f-940e-4f825d2ab248">
      <stop
         id="stop10"
         stop-opacity="0.25"
         stop-color="gray"
         offset="0" />
      <stop
         id="stop12"
         stop-opacity="0.12"
         stop-color="gray"
         offset="0.54" />
      <stop
         id="stop14"
         stop-opacity="0.1"
         stop-color="gray"
         offset="1" />
    </linearGradient>
    <linearGradient
       xlink:href="#6beaf3f8-3e45-4d0f-940e-4f825d2ab248"
       y2="175.07"
       x2="878.33"
       y1="643.77"
       x1="878.33"
       id="618658e0-5682-4211-900b-639feb09c488" />
  </defs>
  <title
     id="title20">finance</title>
  <path
     id="path42"
     fill="url(#6beaf3f8-3e45-4d0f-940e-4f825d2ab248)"
     transform="translate(-123 -175.07)"
     d="M902.43,554.27H838.18a21.42,21.42,0,0,0,2.24-9.57V252.14a21.51,21.51,0,0,0-21.51-21.51H321.58a21.51,21.51,0,0,0-21.51,21.51V544.71a21.42,21.42,0,0,0,2.24,9.57H235.79A5.69,5.69,0,0,0,230.1,560v4.59a31.82,31.82,0,0,0,31.82,31.82H876.3a31.82,31.82,0,0,0,31.82-31.82V560A5.69,5.69,0,0,0,902.43,554.27Zm-395.89,18.2L501,566.22H637.78l-6.1,6.26Z" />
  <rect
     id="rect44"
     fill="#535461"
     ry="23.26"
     rx="23.26"
     height="327.99"
     width="528.12"
     y="59.7"
     x="183.16" />
  <rect
     id="rect46"
     fill="#fff"
     height="267.95"
     width="504.77"
     y="107.51"
     x="194.28" />
  <circle
     id="circle48"
     fill="#fff"
     r="4.45"
     cy="84.16"
     cx="446.67" />
  <path
     id="path50"
     fill="#535461"
     transform="translate(-123 -175.07)"
     d="M647.6,551.08l-17.34,17.79H508l-15.67-17.79H243.34a5.56,5.56,0,0,0-5.56,5.56v4.48a31.1,31.1,0,0,0,31.1,31.1H869.34a31.1,31.1,0,0,0,31.1-31.1v-4.48a5.56,5.56,0,0,0-5.56-5.56Z" />
  <polyline
     id="polyline52"
     stroke-width="2"
     stroke-miterlimit="10"
     stroke="#535461"
     fill="none"
     points="258.77 124.19 258.77 352.11 635.67 352.11" />
  <rect
     style="fill:#00aff5;fill-opacity:1"
     id="rect54"
     opacity="0.5"
     fill="#6c63ff"
     height="60.04"
     width="38.91"
     y="283.18"
     x="292.12" />
  <rect
     style="fill:#00aff5;fill-opacity:1"
     id="rect56"
     opacity="0.7"
     fill="#6c63ff"
     height="113.41"
     width="38.91"
     y="229.81"
     x="358.83" />
  <rect
     style="fill:#00aff5;fill-opacity:1"
     id="rect58"
     opacity="0.5"
     fill="#6c63ff"
     height="81.16"
     width="38.91"
     y="262.05"
     x="425.54" />
  <rect
     style="fill:#00aff5;fill-opacity:1"
     id="rect60"
     opacity="0.8"
     fill="#6c63ff"
     height="131.2"
     width="38.91"
     y="212.02"
     x="492.25" />
  <rect
     style="fill:#00aff5;fill-opacity:1"
     id="rect62"
     fill="#6c63ff"
     height="177.89"
     width="38.91"
     y="165.32001"
     x="558.96002" />
  <polyline
     id="polyline64"
     stroke-width="2"
     stroke-miterlimit="10"
     stroke="#535461"
     fill="none"
     points="311.02 246.49 378.84 185.34 445.55 243.15 511.15 173.11 577.86 145.31" />
  <circle
     style="fill:#008ac2;fill-opacity:1"
     id="circle66"
     fill="#6c63ff"
     r="7.78"
     cy="246.49"
     cx="311.02" />
  <circle
     style="fill:#008ac2;fill-opacity:1"
     id="circle68"
     fill="#6c63ff"
     r="7.78"
     cy="242.04"
     cx="444.44" />
  <circle
     style="fill:#008ac2;fill-opacity:1"
     id="circle70"
     fill="#6c63ff"
     r="7.78"
     cy="173.11"
     cx="512.26" />
  <circle
     style="fill:#008ac2;fill-opacity:1"
     id="circle72"
     fill="#6c63ff"
     r="7.78"
     cy="184.22"
     cx="378.84" />
  <circle
     style="fill:#008ac2;fill-opacity:1"
     id="circle74"
     fill="#6c63ff"
     r="7.78"
     cy="145.31"
     cx="577.86" />
  <path
     id="path94"
     opacity="0.1"
     transform="translate(-123 -175.07)"
     d="M913.72,254.87a22.42,22.42,0,0,1-13.29,6.31,32.33,32.33,0,0,0-13.06,3.88c-4.73,2.65-10,6.5-11.6,11.19-3.22,9.2-23.46,24.38-32.66,21.16l3.22,27.6s26.22-1.38,30.82-11.5L869.34,412h6.9s3.68-26.68,6.44-32.2,8.28-35.88,8.74-43.24,7.36-49.68,13.34-57l9-21.85Z" />
  <path
     id="path100"
     opacity="0.1"
     transform="translate(-123 -175.07)"
     d="M937.18,237.62c-.6-4.36.6-7.08,1.15-12.19l-26.22,19.78s.63,2.67,1.11,6.58a25,25,0,0,0,4,.32C926.32,252.11,932.87,245,937.18,237.62Z" />
  <path
     id="path108"
     opacity="0.1"
     transform="translate(-123 -175.07)"
     d="M841,297.42s-3.68,17,3.22,27.6l3.91-.32-2.13-27Z" />
  <path
     id="path118"
     opacity="0.1"
     transform="translate(-123 -175.07)"
     d="M948.22,361.82s16.28,18.28,22.63,15.35l5.88-13.69L954.66,354Z" />
  <path
     id="path126"
     opacity="0.1"
     transform="translate(-123 -175.07)"
     d="M950.52,304.78s.92,33.12-2.76,45.54" />
  <path
     id="path128"
     opacity="0.1"
     transform="translate(-123 -175.07)"
     d="M876,311.22s5.52-1.84,5.52-6.44" />
</svg>
